<svg xmlns="http://www.w3.org/2000/svg" id="Layer_2" data-name="Layer 2" viewBox="0 0 25 25"><defs><style>.cls-2{fill:#f44ad1}.cls-3{fill:#0e0b6f}</style></defs><g id="Layer_1-2" data-name="Layer 1"><path d="M10.26 23.85c.29-.02 1.14-.12 1.46-.03.51.14 3.82.34 7.38-.52 0 0 1.21-.17 1.61-.22h.03c-.22 0-.4-.04-.5-.12.01-.03.05-.06.08-.09-.47 0-1.06-.02-1.23-.03h-.89c-.13 0-.26 0-.36.01h-.24c-.07 0-.12.01-.15.02-.19.05-.23.47-.4.51-.67.15-2.53-1.11-2.6.17-3.03-.79-6.21-.08-9.28.17-1.55.13-3.11.24-4.67.37v.59h1.6c1.29-.12 2.3-.19 4.2-.33 1.04-.16 3.49-.49 3.96-.51ZM22.43 20.68c-.14-.07-1.93-2.31-1.93-2.46 0-.2 1.6-2.04 1.82-2 .31.06 1.61 1.64 2.18 2.31v-.56c-.55-.8-1.11-1.67-2-2.12l-.05-.23c.4-.37 1.08-2.96 1.22-3.08.21-.19.51-.17.83-.05v-.23c-.44.06-.85.1-.85-.18V8.49c.31-.03.58-.17.85-.34v-.44c-.43.28-.79.48-.85.42-.31-.36.21-.91.85-1.31V4.28c-1.53.03-3.11-.11-4.61 0-.4.03-3.12.41-3.24.53-.25.24.01.32.26.35.45.05.92-.03 1.38.04.15.02.31.07.46.14 0 .05-.02.09-.05.12-.11.1-.36.15-.55.18-.09.01-.16.02-.2.02-.79.08-8-.24-7.95.63.01.2.57.15.52.44-1.61.29-6.31 1.51-6.83 3.25-.15.51.71.09.87.35-1.5.89-2.83 2-4.06 3.23v2.91c.79-.59 1.57-1.01 1.94-.77.08.05.65 1.65.51 1.87-.03.06-.98.63-1.15.69-.39.14-.84.23-1.3.31v.25c.51-.08 1.31-.18 1.52-.16.15.01.11.32.09.35.25-.37.84-1.33 1.28-1.21.14.04 1.93 1.87 1.35 2.26 1.03-.49 1.39.32 2.21.68.55.24 1.12.39 1.68.6l2.76.47c-3.63.09-7.26.4-10.89.5v.63c7.86-.73 16.38-.18 24-2.05v-.6c-1.06.28-1.94.47-2.07.4ZM4.14 17.77c-.79-1.05-2.17-4.42-1.59-5.59.29-.59 2.91-1.66 3.42-2.36l-1.4-.09C6.2 8.11 8.66 7.47 10.88 7.1c.25-.77.02-1.14 1.05-.79 0 .26-.58.8-.8.98-.16.13-.25-.03-.26-.02-.13.11-.24.27-.35.35-.06.05-.11.13-.18.18-.9.63-1.78 1.44-2.98 1.4.8 2.78 2.2 1.39 4.11.7.11 1.89-3.57 1.55-5.03 1.98-.23.07-1.36.53-.91.83.22.15 1.63.52 1.93.53.81.02 1.36-.78 2.18-.45-1.01 1.7-2.46 2.6-3.93 3.77-.27.21-.84.51-.79.87 2.28.17 3.82-1.37 5.26-2.88.96-1.01 1.48-2.53 3.08-2.53.91 0 1.21.98 1.73 1.56.48.54 1.7 2.06 2.2 2.35.34.19 2.96.95 3.14.8-.04-.39-.42-.88-.69-1.14-.66-.66-4.45-3.06-4.56-3.32-.15-.35.23-.24.41-.28 2.44-.64 2.67 1.2 4.84.54-.1-2.34-3.59-1.56-5.25-1.75.22-.35 1.16-.63 1.54-.66.54-.05 2.11.42 1.76-.79-.22-.78-2.7-2.28-3.65-1.87-.14.42.87 1.03.24 1.2-.44.12-1.04-.03-1.53.04-.62.09-1.2.42-1.86.33-.08-.36.18-.41.4-.56 1.04-.7 3.02-.79 2.22-2.42 1.55-.09 2.85.42 4.38-.08 1.33-.44.34-1.06 1.3-1.15 1.97-.2 2.42-.13 2.98 1.77.47 1.58.4 4.68 0 6.3-1.87 7.71-13.7 11.53-18.73 4.89Zm9.18-6.82c-.03-1.06.78-1.83 1.84-1.77 1.9.12-1.68 1.93-1.84 1.77m8.58 9.98c-.1.12-2.66.48-3.07.52-.58.06-1.72.16-2.27.19-1.02.05-2.06-.06-3.07-.01l3.27-1.02c.79-.08 2.69-1.89 3.15-1.93.55-.05 2.24 1.94 1.99 2.25M23.53 3.46c.27.14.64.22.97.37v-.76h-1.2c-.07.4.02.28.22.39Z" class="cls-3"/><path d="M23.04 22.16c-.55.05-1.15.16-1.67.35-.37.13-.42.35-.45.35h-.6c-.03.03-.07.06-.08.09.09.08.28.11.5.12.82.03 2.27-.36 2.54-.35.04 0 .59-.07 1.22-.16v-.37c-.47 0-1.22-.04-1.46-.02ZM2.75 7.48C6.78 4.72 11.12 2.42 15.68.7h-1.93C10.33 2.08 4.18 4.77.5 7.82v1.41c.63-.56 1.37-1.13 2.25-1.74ZM1.8 19.05c-.1.13-.03.29-.04.31.02-.02.06.08.35-.35-.02.02-.25-.04-.31.04" class="cls-3"/><path d="M1.19 21.24c.1-.19.43-1.72.57-1.89-.15.19-.41.33-.64.68-.19.3-.4.83-.62 1.26v.35c.28-.13.63-.29.69-.4" class="cls-3"/><path d="M.5 22.94v1.17c1.56-.14 3.13-.24 4.67-.37 3.07-.25 6.26-.95 9.28-.17.07-1.28 1.93-.02 2.6-.17.17-.04.21-.46.4-.51.02 0 .09-.01.15-.02h.24c.11 0 .24-.01.36-.01h.89c.17 0 .77.02 1.23.03h.6c.03 0 .09-.22.45-.35.52-.19 1.12-.29 1.67-.35.24-.02.99.02 1.46.02v-1.3c-7.62 1.87-16.14 1.32-24 2.05ZM24.5 3.07V.7h-8.82c-4.56 1.72-8.9 4.02-12.93 6.78-.89.61-1.62 1.18-2.25 1.74v4.34c1.23-1.23 2.56-2.33 4.06-3.23-.16-.26-1.02.17-.87-.35.51-1.74 5.22-2.96 6.83-3.25.04-.29-.51-.23-.52-.44-.05-.88 7.16-.55 7.95-.63.04 0 .12-.01.2-.02.19-.03.44-.08.55-.18.04-.03.06-.08.05-.12a2 2 0 0 0-.46-.14c-.46-.07-.93.01-1.38-.04-.25-.03-.51-.11-.26-.35.12-.11 2.84-.5 3.24-.53 1.5-.11 3.08.03 4.61 0v-.47c-.33-.14-.71-.23-.97-.37-.21-.11-.29 0-.22-.39h1.2Z" class="cls-2"/><path d="M15.2 16.06c-.39.06-.59.54-1 .5.28-.8-.65-.99-.88-1.66l1.4-.88c-.37-.36-1.33-1.37-1.83-1.33-.54.05-.5.71-.72 1.05-.27.41-2.77 3.46-2.52 3.7 1.16-.02 3.99-4.24 2.02-.13-.07.14.08.3.23.29l2.47-.15c.35.29-1.19.96-1.34 1.03-.46.2-2.25.64-2.34.73-.25.25.02.32.26.35 1.42.18 5.12-.52 5.63-2.1.2-.64-.81-1.47-1.38-1.38ZM4.56 20.14c-.17-.08-.69.18-.52.26.26.06.37-.07.52-.26" class="cls-3"/><path d="M.5.5h24v24H.5z" style="fill:none;stroke:#0e0b6f;stroke-miterlimit:10"/></g></svg>